<svg width="1200" height="630" viewBox="0 0 1200 630" fill="none" xmlns="http://www.w3.org/2000/svg" role="img" aria-labelledby="title">
  <title id="title">CanonBridge enterprise integration platform</title>
  <rect width="1200" height="630" fill="#F7FAF8"/>
  <rect x="72" y="72" width="1056" height="486" rx="32" fill="white" stroke="#DBE8E2"/>
  <rect x="112" y="112" width="360" height="360" rx="22" fill="#061016"/>
  <path d="M174 332C221 243 276 198 341 198C392 198 431 223 476 275" stroke="#2B9A90" stroke-width="22" stroke-linecap="round"/>
  <path d="M174 400C225 345 278 318 337 318C396 318 439 343 506 400" stroke="#DF6B3A" stroke-width="22" stroke-linecap="round"/>
  <text x="540" y="218" fill="#061016" font-family="Arial, sans-serif" font-size="76" font-weight="800">CanonBridge</text>
  <text x="546" y="300" fill="#183247" font-family="Arial, sans-serif" font-size="36" font-weight="700">Any source. One canonical format.</text>
  <text x="546" y="362" fill="#496170" font-family="Arial, sans-serif" font-size="28">Visual mapping, runtime recovery, and observability for enterprise integrations.</text>
  <rect x="546" y="430" width="204" height="54" rx="12" fill="#1E7F78"/>
  <text x="590" y="465" fill="#F7FAF8" font-family="Arial, sans-serif" font-size="22" font-weight="700">Zero code</text>
  <rect x="768" y="430" width="244" height="54" rx="12" fill="#EDF4F1"/>
  <text x="810" y="465" fill="#183247" font-family="Arial, sans-serif" font-size="22" font-weight="700">10 source types</text>
</svg>
