<svg width="1120" height="700" viewBox="0 0 1120 700" fill="none" xmlns="http://www.w3.org/2000/svg" role="img" aria-labelledby="title desc">
  <title id="title">CanonBridge product console</title>
  <desc id="desc">A Mapping Studio workflow showing partner sources, field mapping, validation, and runtime health.</desc>
  <rect width="1120" height="700" rx="24" fill="#F7FAF8"/>
  <rect x="28" y="28" width="1064" height="644" rx="18" fill="white" stroke="#DBE8E2"/>
  <rect x="28" y="28" width="1064" height="58" rx="18" fill="#061016"/>
  <circle cx="60" cy="57" r="7" fill="#DF6B3A"/>
  <circle cx="84" cy="57" r="7" fill="#C99A35"/>
  <circle cx="108" cy="57" r="7" fill="#2B9A90"/>
  <rect x="144" y="45" width="172" height="24" rx="6" fill="#102331"/>
  <rect x="918" y="44" width="132" height="26" rx="13" fill="#1E7F78"/>
  <rect x="54" y="118" width="224" height="504" rx="12" fill="#EDF4F1"/>
  <text x="78" y="154" fill="#061016" font-family="Arial, sans-serif" font-size="18" font-weight="700">Partner Sources</text>
  <g font-family="Arial, sans-serif" font-size="13" font-weight="700">
    <rect x="78" y="188" width="168" height="44" rx="8" fill="#FFFFFF" stroke="#DBE8E2"/>
    <circle cx="101" cy="210" r="8" fill="#2B9A90"/>
    <text x="119" y="215" fill="#183247">REST API</text>
    <rect x="78" y="248" width="168" height="44" rx="8" fill="#FFFFFF" stroke="#DBE8E2"/>
    <circle cx="101" cy="270" r="8" fill="#2864AD"/>
    <text x="119" y="275" fill="#183247">Kafka Topic</text>
    <rect x="78" y="308" width="168" height="44" rx="8" fill="#FFFFFF" stroke="#DBE8E2"/>
    <circle cx="101" cy="330" r="8" fill="#DF6B3A"/>
    <text x="119" y="335" fill="#183247">SFTP Batch</text>
    <rect x="78" y="368" width="168" height="44" rx="8" fill="#FFFFFF" stroke="#DBE8E2"/>
    <circle cx="101" cy="390" r="8" fill="#6B4FB3"/>
    <text x="119" y="395" fill="#183247">SOAP/XML</text>
  </g>
  <rect x="316" y="118" width="478" height="504" rx="12" fill="#FFFFFF" stroke="#DBE8E2"/>
  <text x="344" y="154" fill="#061016" font-family="Arial, sans-serif" font-size="18" font-weight="700">Visual Mapping</text>
  <g stroke="#1E7F78" stroke-width="3" stroke-linecap="round">
    <path d="M438 226C494 226 499 278 556 278"/>
    <path d="M438 310C493 310 502 363 556 363"/>
    <path d="M438 394C491 394 501 450 556 450"/>
  </g>
  <g font-family="Arial, sans-serif" font-size="13" font-weight="700">
    <rect x="344" y="198" width="94" height="56" rx="8" fill="#EDF4F1" stroke="#DBE8E2"/>
    <text x="365" y="231" fill="#183247">order_id</text>
    <rect x="344" y="282" width="94" height="56" rx="8" fill="#EDF4F1" stroke="#DBE8E2"/>
    <text x="361" y="315" fill="#183247">amount</text>
    <rect x="344" y="366" width="94" height="56" rx="8" fill="#EDF4F1" stroke="#DBE8E2"/>
    <text x="362" y="399" fill="#183247">status</text>
    <rect x="556" y="250" width="178" height="56" rx="8" fill="#061016"/>
    <text x="586" y="283" fill="#F7FAF8">canonical.orderId</text>
    <rect x="556" y="335" width="178" height="56" rx="8" fill="#061016"/>
    <text x="583" y="368" fill="#F7FAF8">canonical.total</text>
    <rect x="556" y="422" width="178" height="56" rx="8" fill="#061016"/>
    <text x="580" y="455" fill="#F7FAF8">canonical.state</text>
  </g>
  <rect x="828" y="118" width="236" height="238" rx="12" fill="#102331"/>
  <text x="852" y="154" fill="#F7FAF8" font-family="Arial, sans-serif" font-size="18" font-weight="700">Runtime Health</text>
  <g font-family="Arial, sans-serif" font-size="13">
    <rect x="852" y="188" width="84" height="70" rx="8" fill="#183247"/>
    <text x="874" y="219" fill="#93D9CF" font-weight="700">99.9%</text>
    <text x="872" y="241" fill="#B7C9C3">SLO</text>
    <rect x="956" y="188" width="84" height="70" rx="8" fill="#183247"/>
    <text x="979" y="219" fill="#FFB087" font-weight="700">12ms</text>
    <text x="976" y="241" fill="#B7C9C3">p95</text>
    <rect x="852" y="278" width="188" height="42" rx="8" fill="#1E7F78"/>
    <text x="895" y="304" fill="#F7FAF8" font-weight="700">Replay queue clear</text>
  </g>
  <rect x="828" y="384" width="236" height="238" rx="12" fill="#FFFFFF" stroke="#DBE8E2"/>
  <text x="852" y="420" fill="#061016" font-family="Arial, sans-serif" font-size="18" font-weight="700">Validation</text>
  <g font-family="Arial, sans-serif" font-size="13">
    <rect x="852" y="452" width="188" height="38" rx="7" fill="#EDF4F1"/>
    <circle cx="873" cy="471" r="6" fill="#2B9A90"/>
    <text x="890" y="476" fill="#183247">Schema compatible</text>
    <rect x="852" y="506" width="188" height="38" rx="7" fill="#EDF4F1"/>
    <circle cx="873" cy="525" r="6" fill="#2B9A90"/>
    <text x="890" y="530" fill="#183247">Fixtures passing</text>
    <rect x="852" y="560" width="188" height="38" rx="7" fill="#EDF4F1"/>
    <circle cx="873" cy="579" r="6" fill="#2B9A90"/>
    <text x="890" y="584" fill="#183247">Ready to publish</text>
  </g>
</svg>
