<svg width="180" height="40" viewBox="0 0 180 40" fill="none" xmlns="http://www.w3.org/2000/svg" role="img" aria-labelledby="title">
  <title id="title">CanonBridge</title>
  <rect x="2" y="2" width="36" height="36" rx="8" fill="#061016"/>
  <path d="M11 22.5C13.8 17.2 17.1 14.5 21 14.5C24.1 14.5 26.4 16 29.1 19.1" stroke="#2B9A90" stroke-width="3" stroke-linecap="round"/>
  <path d="M11 26.5C14 23.2 17.2 21.6 20.7 21.6C24.2 21.6 26.8 23.1 30.8 26.5" stroke="#DF6B3A" stroke-width="3" stroke-linecap="round"/>
  <path d="M52 13.9C54.1 11.8 56.8 10.7 60.1 10.7C64.3 10.7 67.8 12.8 69.4 16.4L64.9 18.1C64 16 62.4 15 60.1 15C56.4 15 53.9 17.6 53.9 21.5C53.9 25.4 56.4 28 60.1 28C62.5 28 64.2 26.9 65 24.8L69.5 26.5C67.9 30.1 64.4 32.3 60.1 32.3C56.8 32.3 54.1 31.2 52 29.1C49.9 27 48.8 24.5 48.8 21.5C48.8 18.5 49.9 16 52 13.9Z" fill="#061016"/>
  <path d="M75.4 31.9H70.7L78.7 11.1H84.2L92.2 31.9H87.3L85.7 27.5H77L75.4 31.9ZM78.4 23.7H84.3L81.4 15.5L78.4 23.7Z" fill="#061016"/>
  <path d="M98.6 31.9H94V11.1H98.4L107.8 24.1V11.1H112.4V31.9H108L98.6 18.9V31.9Z" fill="#061016"/>
  <path d="M119.6 31.9H115V11.1H119.4L128.8 24.1V11.1H133.4V31.9H129L119.6 18.9V31.9Z" fill="#061016"/>
  <path d="M139.9 31.9H135.2L143.2 11.1H148.7L156.7 31.9H151.8L150.2 27.5H141.5L139.9 31.9ZM142.9 23.7H148.8L145.9 15.5L142.9 23.7Z" fill="#061016"/>
  <path d="M158.7 31.9V11.1H163.5V27.7H172.1V31.9H158.7Z" fill="#061016"/>
</svg>
